# Blender v2.80 (sub 59) OBJ File: 'ExitSign.blend'
# www.blender.org
mtllib ExitSign.mtl
o Plane
v -2.000000 0.000000 1.000000
v 2.000000 0.000000 1.000000
v -2.000000 0.000000 -1.000000
v 2.000000 0.000000 -1.000000
v -2.000000 0.050114 1.000000
v 2.000000 0.050114 1.000000
v -2.000000 0.050114 -1.000000
v 2.000000 0.050114 -1.000000
v -1.870000 0.043104 -0.846523
v -1.896173 0.043104 -0.859128
v -1.902637 0.043104 -0.887449
v -1.884525 0.043104 -0.910161
v -1.855475 0.043104 -0.910161
v -1.837363 0.043104 -0.887449
v -1.843827 0.043104 -0.859128
v -1.870000 0.060637 -0.846523
v -1.896173 0.060637 -0.859128
v -1.902637 0.060637 -0.887449
v -1.884525 0.060637 -0.910161
v -1.855475 0.060637 -0.910161
v -1.837363 0.060637 -0.887449
v -1.843827 0.060637 -0.859128
v -1.870000 0.060637 -0.830320
v -1.908841 0.060637 -0.849025
v -1.918434 0.060637 -0.891055
v -1.891555 0.060637 -0.924760
v -1.848445 0.060637 -0.924760
v -1.821566 0.060637 -0.891055
v -1.831159 0.060637 -0.849025
v -1.870000 0.068771 -0.830320
v -1.908841 0.068771 -0.849025
v -1.918434 0.068771 -0.891055
v -1.891555 0.068771 -0.924760
v -1.848445 0.068771 -0.924760
v -1.821566 0.068771 -0.891055
v -1.831159 0.068771 -0.849025
v -1.870000 0.080759 -0.848437
v -1.894677 0.080759 -0.860321
v -1.900771 0.080759 -0.887023
v -1.883695 0.080759 -0.908437
v -1.856306 0.080759 -0.908437
v -1.839229 0.080759 -0.887023
v -1.845324 0.080759 -0.860321
v -1.870000 0.088897 -0.880000
v 1.870000 0.043104 -0.846523
v 1.896173 0.043104 -0.859128
v 1.902637 0.043104 -0.887449
v 1.884525 0.043104 -0.910161
v 1.855475 0.043104 -0.910161
v 1.837363 0.043104 -0.887449
v 1.843827 0.043104 -0.859128
v 1.870000 0.060637 -0.846523
v 1.896173 0.060637 -0.859128
v 1.902637 0.060637 -0.887449
v 1.884525 0.060637 -0.910161
v 1.855475 0.060637 -0.910161
v 1.837363 0.060637 -0.887449
v 1.843827 0.060637 -0.859128
v 1.870000 0.060637 -0.830320
v 1.908841 0.060637 -0.849025
v 1.918434 0.060637 -0.891055
v 1.891555 0.060637 -0.924760
v 1.848445 0.060637 -0.924760
v 1.821566 0.060637 -0.891055
v 1.831159 0.060637 -0.849025
v 1.870000 0.068771 -0.830320
v 1.908841 0.068771 -0.849025
v 1.918434 0.068771 -0.891055
v 1.891555 0.068771 -0.924760
v 1.848445 0.068771 -0.924760
v 1.821566 0.068771 -0.891055
v 1.831159 0.068771 -0.849025
v 1.870000 0.080759 -0.848437
v 1.894677 0.080759 -0.860321
v 1.900771 0.080759 -0.887023
v 1.883695 0.080759 -0.908437
v 1.856306 0.080759 -0.908437
v 1.839229 0.080759 -0.887023
v 1.845324 0.080759 -0.860321
v 1.870000 0.088897 -0.880000
v -1.870000 0.043104 0.846523
v -1.896173 0.043104 0.859128
v -1.902637 0.043104 0.887449
v -1.884525 0.043104 0.910161
v -1.855475 0.043104 0.910161
v -1.837363 0.043104 0.887449
v -1.843827 0.043104 0.859128
v -1.870000 0.060637 0.846523
v -1.896173 0.060637 0.859128
v -1.902637 0.060637 0.887449
v -1.884525 0.060637 0.910161
v -1.855475 0.060637 0.910161
v -1.837363 0.060637 0.887449
v -1.843827 0.060637 0.859128
v -1.870000 0.060637 0.830320
v -1.908841 0.060637 0.849025
v -1.918434 0.060637 0.891055
v -1.891555 0.060637 0.924760
v -1.848445 0.060637 0.924760
v -1.821566 0.060637 0.891055
v -1.831159 0.060637 0.849025
v -1.870000 0.068771 0.830320
v -1.908841 0.068771 0.849025
v -1.918434 0.068771 0.891055
v -1.891555 0.068771 0.924760
v -1.848445 0.068771 0.924760
v -1.821566 0.068771 0.891055
v -1.831159 0.068771 0.849025
v -1.870000 0.080759 0.848437
v -1.894677 0.080759 0.860321
v -1.900771 0.080759 0.887023
v -1.883695 0.080759 0.908437
v -1.856306 0.080759 0.908437
v -1.839229 0.080759 0.887023
v -1.845324 0.080759 0.860321
v -1.870000 0.088897 0.880000
v 1.870000 0.043104 0.846523
v 1.896173 0.043104 0.859128
v 1.902637 0.043104 0.887449
v 1.884525 0.043104 0.910161
v 1.855475 0.043104 0.910161
v 1.837363 0.043104 0.887449
v 1.843827 0.043104 0.859128
v 1.870000 0.060637 0.846523
v 1.896173 0.060637 0.859128
v 1.902637 0.060637 0.887449
v 1.884525 0.060637 0.910161
v 1.855475 0.060637 0.910161
v 1.837363 0.060637 0.887449
v 1.843827 0.060637 0.859128
v 1.870000 0.060637 0.830320
v 1.908841 0.060637 0.849025
v 1.918434 0.060637 0.891055
v 1.891555 0.060637 0.924760
v 1.848445 0.060637 0.924760
v 1.821566 0.060637 0.891055
v 1.831159 0.060637 0.849025
v 1.870000 0.068771 0.830320
v 1.908841 0.068771 0.849025
v 1.918434 0.068771 0.891055
v 1.891555 0.068771 0.924760
v 1.848445 0.068771 0.924760
v 1.821566 0.068771 0.891055
v 1.831159 0.068771 0.849025
v 1.870000 0.080759 0.848437
v 1.894677 0.080759 0.860321
v 1.900771 0.080759 0.887023
v 1.883695 0.080759 0.908437
v 1.856306 0.080759 0.908437
v 1.839229 0.080759 0.887023
v 1.845324 0.080759 0.860321
v 1.870000 0.088897 0.880000
vt 1.000000 0.500000
vt 0.000000 1.000000
vt 0.000000 0.500000
vt 0.750214 0.493674
vt 0.500465 0.499931
vt 0.500465 0.493674
vt 0.250723 0.493674
vt 0.000988 0.499931
vt 0.000988 0.493673
vt 0.250723 0.499931
vt 0.999971 0.493673
vt 0.750214 0.499932
vt 1.000000 1.000000
vt 0.999972 0.499931
vt 0.021155 0.426019
vt 0.043400 0.442107
vt 0.031670 0.448488
vt 0.028684 0.372852
vt 0.031926 0.400901
vt 0.017760 0.398600
vt 0.060395 0.335210
vt 0.054918 0.362936
vt 0.044184 0.353294
vt 0.056427 0.458384
vt 0.045401 0.466827
vt 0.034995 0.422912
vt 0.041194 0.380307
vt 0.071362 0.476209
vt 0.060280 0.485189
vt 0.044819 0.421427
vt 0.051632 0.438215
vt 0.043750 0.402692
vt 0.083187 0.347338
vt 0.062487 0.368321
vt 0.063534 0.453355
vt 0.050356 0.384426
vt 0.083182 0.473547
vt 0.048542 0.420484
vt 0.053954 0.386327
vt 0.088131 0.468758
vt 0.054867 0.436146
vt 0.047678 0.403198
vt 0.088043 0.352293
vt 0.065827 0.371282
vt 0.066593 0.450268
vt 0.062782 0.391759
vt 0.057846 0.404928
vt 0.073259 0.380259
vt 0.063626 0.430589
vt 0.073770 0.441575
vt 0.057664 0.418434
vt 0.092544 0.450271
vt 0.087603 0.411000
vt 0.092544 0.371279
vt 0.043400 0.442107
vt 0.021155 0.426019
vt 0.031670 0.448488
vt 0.031926 0.400901
vt 0.028684 0.372852
vt 0.017760 0.398600
vt 0.044184 0.353294
vt 0.070817 0.344411
vt 0.060395 0.335210
vt 0.056427 0.458384
vt 0.045401 0.466827
vt 0.034995 0.422912
vt 0.041194 0.380307
vt 0.071362 0.476209
vt 0.060280 0.485189
vt 0.044819 0.421427
vt 0.043750 0.402692
vt 0.054918 0.362936
vt 0.083187 0.347338
vt 0.063534 0.453355
vt 0.062487 0.368321
vt 0.083182 0.473547
vt 0.048542 0.420484
vt 0.053954 0.386327
vt 0.050356 0.384426
vt 0.088131 0.468758
vt 0.054867 0.436146
vt 0.051632 0.438215
vt 0.047678 0.403198
vt 0.065827 0.371282
vt 0.066593 0.450268
vt 0.062782 0.391759
vt 0.073259 0.380259
vt 0.088043 0.352293
vt 0.063626 0.430589
vt 0.057664 0.418434
vt 0.073770 0.441575
vt 0.092544 0.450271
vt 0.087603 0.411000
vt 0.057846 0.404928
vt 0.092544 0.371279
vt 0.043400 0.442107
vt 0.021155 0.426019
vt 0.031670 0.448488
vt 0.031926 0.400901
vt 0.028684 0.372852
vt 0.017760 0.398600
vt 0.044184 0.353294
vt 0.070817 0.344411
vt 0.060395 0.335210
vt 0.056427 0.458384
vt 0.045401 0.466827
vt 0.034995 0.422912
vt 0.041194 0.380307
vt 0.071362 0.476209
vt 0.060280 0.485189
vt 0.044819 0.421427
vt 0.043750 0.402692
vt 0.054918 0.362936
vt 0.083187 0.347338
vt 0.063534 0.453355
vt 0.062487 0.368321
vt 0.083182 0.473547
vt 0.048542 0.420484
vt 0.053954 0.386327
vt 0.050356 0.384426
vt 0.088131 0.468758
vt 0.054867 0.436146
vt 0.051632 0.438215
vt 0.047678 0.403198
vt 0.065827 0.371282
vt 0.066593 0.450268
vt 0.062782 0.391759
vt 0.073259 0.380259
vt 0.088043 0.352293
vt 0.063626 0.430589
vt 0.057664 0.418434
vt 0.073770 0.441575
vt 0.092544 0.450271
vt 0.087603 0.411000
vt 0.057846 0.404928
vt 0.092544 0.371279
vt 0.021155 0.426019
vt 0.043400 0.442107
vt 0.031670 0.448488
vt 0.028684 0.372852
vt 0.031926 0.400901
vt 0.017760 0.398600
vt 0.060395 0.335210
vt 0.054918 0.362936
vt 0.044184 0.353294
vt 0.056427 0.458384
vt 0.045401 0.466827
vt 0.034995 0.422912
vt 0.041194 0.380307
vt 0.071362 0.476209
vt 0.060280 0.485189
vt 0.044819 0.421427
vt 0.051632 0.438215
vt 0.043750 0.402692
vt 0.083187 0.347338
vt 0.062487 0.368321
vt 0.063534 0.453355
vt 0.050356 0.384426
vt 0.083182 0.473547
vt 0.048542 0.420484
vt 0.053954 0.386327
vt 0.088131 0.468758
vt 0.054867 0.436146
vt 0.047678 0.403198
vt 0.088043 0.352293
vt 0.065827 0.371282
vt 0.066593 0.450268
vt 0.062782 0.391759
vt 0.057846 0.404928
vt 0.073259 0.380259
vt 0.063626 0.430589
vt 0.073770 0.441575
vt 0.057664 0.418434
vt 0.092544 0.450271
vt 0.087603 0.411000
vt 0.092544 0.371279
vt 0.070817 0.344411
vt 0.070817 0.344411
vn 0.0000 1.0000 0.0000
vn 0.0000 0.0000 -1.0000
vn 0.0000 0.0000 1.0000
vn 1.0000 0.0000 0.0000
vn -1.0000 0.0000 0.0000
vn 0.7818 0.0000 0.6235
vn 0.0000 -0.8189 0.5739
vn 0.4339 0.0000 -0.9010
vn 0.5595 -0.8189 -0.1277
vn 0.9749 0.0000 -0.2225
vn -0.9749 0.0000 -0.2225
vn -0.2490 -0.8189 -0.5170
vn -0.4339 0.0000 -0.9010
vn -0.4487 -0.8189 0.3578
vn -0.7818 0.0000 0.6235
vn 0.4487 -0.8189 0.3578
vn 0.2490 -0.8189 -0.5170
vn -0.5595 -0.8189 -0.1277
vn 0.6126 -0.6212 0.4886
vn 0.0000 -0.6212 0.7836
vn 0.7639 -0.6212 -0.1744
vn -0.7639 -0.6212 -0.1744
vn -0.3400 -0.6212 -0.7060
vn -0.6126 -0.6212 0.4886
vn 0.3400 -0.6212 -0.7060
vn 0.7074 0.4259 0.5641
vn 0.3926 0.4259 -0.8151
vn -0.8821 0.4259 -0.2013
vn 0.0000 0.4259 0.9048
vn 0.8821 0.4259 -0.2013
vn -0.3926 0.4259 -0.8151
vn -0.7074 0.4259 0.5641
vn 0.1926 0.8960 -0.4000
vn 0.4329 0.8960 -0.0988
vn -0.1926 0.8960 -0.4000
vn 0.0000 0.8960 0.4440
vn -0.3471 0.8960 0.2768
vn 0.3471 0.8960 0.2768
vn -0.4329 0.8960 -0.0988
vn 0.0000 -0.8189 -0.5739
vn 0.7818 0.0000 -0.6235
vn 0.5595 -0.8189 0.1277
vn 0.4339 0.0000 0.9010
vn 0.9749 0.0000 0.2225
vn -0.4339 0.0000 0.9010
vn -0.5595 -0.8189 0.1277
vn -0.9749 0.0000 0.2225
vn -0.4487 -0.8189 -0.3578
vn -0.7818 0.0000 -0.6235
vn 0.4487 -0.8189 -0.3578
vn 0.2490 -0.8189 0.5170
vn 0.6126 -0.6212 -0.4886
vn 0.7639 -0.6212 0.1744
vn -0.2490 -0.8189 0.5170
vn -0.7639 -0.6212 0.1744
vn -0.6126 -0.6212 -0.4886
vn -0.3400 -0.6212 0.7060
vn 0.7074 0.4259 -0.5641
vn 0.3926 0.4259 0.8151
vn 0.3400 -0.6212 0.7060
vn -0.8821 0.4259 0.2013
vn 0.0000 0.4259 -0.9048
vn 0.0000 -0.6212 -0.7836
vn 0.8821 0.4259 0.2013
vn -0.3926 0.4259 0.8151
vn -0.7074 0.4259 -0.5641
vn 0.1926 0.8960 0.4000
vn -0.1926 0.8960 0.4000
vn 0.0000 0.8960 -0.4440
vn 0.3471 0.8960 -0.2768
vn -0.3471 0.8960 -0.2768
vn -0.4329 0.8960 0.0988
vn 0.4329 0.8960 0.0988
usemtl Material
s off
f 6/1/1 7/2/1 5/3/1
f 3/4/2 8/5/2 4/6/2
f 2/7/3 5/8/3 1/9/3
f 4/6/4 6/10/4 2/7/4
f 1/11/5 7/12/5 3/4/5
f 6/1/1 8/13/1 7/2/1
f 3/4/2 7/12/2 8/5/2
f 2/7/3 6/10/3 5/8/3
f 4/6/4 8/5/4 6/10/4
f 1/11/5 5/14/5 7/12/5
s 1
f 15/15/6 16/16/7 9/17/3
f 13/18/8 21/19/9 14/20/10
f 11/21/11 19/22/12 12/23/13
f 9/17/3 17/24/14 10/25/15
f 14/20/10 22/26/16 15/15/6
f 12/23/13 20/27/17 13/18/8
f 10/25/15 18/28/18 11/29/11
f 16/16/7 29/30/19 23/31/20
f 20/27/17 28/32/21 21/19/9
f 19/22/12 25/33/22 26/34/23
f 16/16/7 24/35/24 17/24/14
f 22/26/16 28/32/21 29/30/19
f 20/27/17 26/34/23 27/36/25
f 17/24/14 25/37/22 18/28/18
f 28/32/21 36/38/26 29/30/19
f 26/34/23 34/39/27 27/36/25
f 24/35/24 32/40/28 25/37/22
f 29/30/19 30/41/29 23/31/20
f 27/36/25 35/42/30 28/32/21
f 26/34/23 32/43/28 33/44/31
f 23/31/20 31/45/32 24/35/24
f 35/42/30 41/46/33 42/47/34
f 32/43/28 40/48/35 33/44/31
f 31/45/32 37/49/36 38/50/37
f 35/42/30 43/51/38 36/38/26
f 33/44/31 41/46/33 34/39/27
f 32/40/28 38/50/37 39/52/39
f 36/38/26 37/49/36 30/41/29
f 39/52/39 38/50/37 44/53/1
f 37/49/36 43/51/38 44/53/1
f 42/47/34 41/46/33 44/53/1
f 40/48/35 39/54/39 44/53/1
f 38/50/37 37/49/36 44/53/1
f 43/51/38 42/47/34 44/53/1
f 41/46/33 40/48/35 44/53/1
f 52/55/7 51/56/15 45/57/3
f 57/58/18 49/59/13 50/60/11
f 48/61/8 54/62/9 47/63/10
f 53/64/16 45/57/3 46/65/6
f 58/66/14 50/60/11 51/56/15
f 56/67/12 48/61/8 49/59/13
f 54/68/9 46/65/6 47/69/10
f 52/55/7 65/70/24 58/66/14
f 64/71/22 56/67/12 57/58/18
f 55/72/17 61/73/21 54/62/9
f 60/74/19 52/55/7 53/64/16
f 58/66/14 64/71/22 57/58/18
f 56/67/12 62/75/25 55/72/17
f 61/76/21 53/64/16 54/68/9
f 72/77/32 64/71/22 65/70/24
f 70/78/31 62/75/25 63/79/23
f 68/80/30 60/74/19 61/76/21
f 66/81/29 65/70/24 59/82/20
f 71/83/28 63/79/23 64/71/22
f 69/84/27 61/73/21 62/75/25
f 67/85/26 59/82/20 60/74/19
f 71/83/28 77/86/35 70/78/31
f 76/87/33 68/88/30 69/84/27
f 67/85/26 73/89/36 66/81/29
f 79/90/37 71/83/28 72/77/32
f 77/86/35 69/84/27 70/78/31
f 68/80/30 74/91/38 67/85/26
f 73/89/36 72/77/32 66/81/29
f 75/92/34 80/93/1 74/91/38
f 73/89/36 80/93/1 79/90/37
f 78/94/39 80/93/1 77/86/35
f 76/87/33 80/93/1 75/95/34
f 74/91/38 80/93/1 73/89/36
f 79/90/37 80/93/1 78/94/39
f 77/86/35 80/93/1 76/87/33
f 88/96/40 87/97/41 81/98/2
f 93/99/42 85/100/43 86/101/44
f 84/102/45 90/103/46 83/104/47
f 89/105/48 81/98/2 82/106/49
f 94/107/50 86/101/44 87/97/41
f 92/108/51 84/102/45 85/100/43
f 90/109/46 82/106/49 83/110/47
f 88/96/40 101/111/52 94/107/50
f 100/112/53 92/108/51 93/99/42
f 91/113/54 97/114/55 90/103/46
f 96/115/56 88/96/40 89/105/48
f 94/107/50 100/112/53 93/99/42
f 92/108/51 98/116/57 91/113/54
f 97/117/55 89/105/48 90/109/46
f 108/118/58 100/112/53 101/111/52
f 106/119/59 98/116/57 99/120/60
f 104/121/61 96/115/56 97/117/55
f 102/122/62 101/111/52 95/123/63
f 107/124/64 99/120/60 100/112/53
f 105/125/65 97/114/55 98/116/57
f 103/126/66 95/123/63 96/115/56
f 107/124/64 113/127/67 106/119/59
f 112/128/68 104/129/61 105/125/65
f 103/126/66 109/130/69 102/122/62
f 115/131/70 107/124/64 108/118/58
f 113/127/67 105/125/65 106/119/59
f 104/121/61 110/132/71 103/126/66
f 109/130/69 108/118/58 102/122/62
f 111/133/72 116/134/1 110/132/71
f 109/130/69 116/134/1 115/131/70
f 114/135/73 116/134/1 113/127/67
f 112/128/68 116/134/1 111/136/72
f 110/132/71 116/134/1 109/130/69
f 115/131/70 116/134/1 114/135/73
f 113/127/67 116/134/1 112/128/68
f 123/137/49 124/138/40 117/139/2
f 121/140/45 129/141/46 122/142/47
f 119/143/44 127/144/51 120/145/43
f 117/139/2 125/146/50 118/147/41
f 122/142/47 130/148/48 123/137/49
f 120/145/43 128/149/54 121/140/45
f 118/147/41 126/150/42 119/151/44
f 124/138/40 137/152/56 131/153/63
f 128/149/54 136/154/55 129/141/46
f 127/144/51 133/155/53 134/156/60
f 124/138/40 132/157/52 125/146/50
f 130/148/48 136/154/55 137/152/56
f 128/149/54 134/156/60 135/158/57
f 125/146/50 133/159/53 126/150/42
f 136/154/55 144/160/66 137/152/56
f 134/156/60 142/161/65 135/158/57
f 132/157/52 140/162/64 133/159/53
f 137/152/56 138/163/62 131/153/63
f 135/158/57 143/164/61 136/154/55
f 134/156/60 140/165/64 141/166/59
f 131/153/63 139/167/58 132/157/52
f 143/164/61 149/168/68 150/169/72
f 140/165/64 148/170/67 141/166/59
f 139/167/58 145/171/69 146/172/70
f 143/164/61 151/173/71 144/160/66
f 141/166/59 149/168/68 142/161/65
f 140/162/64 146/172/70 147/174/73
f 144/160/66 145/171/69 138/163/62
f 147/174/73 146/172/70 152/175/1
f 145/171/69 151/173/71 152/175/1
f 150/169/72 149/168/68 152/175/1
f 148/170/67 147/176/73 152/175/1
f 146/172/70 145/171/69 152/175/1
f 151/173/71 150/169/72 152/175/1
f 149/168/68 148/170/67 152/175/1
f 15/15/6 22/26/16 16/16/7
f 13/18/8 20/27/17 21/19/9
f 11/21/11 18/177/18 19/22/12
f 9/17/3 16/16/7 17/24/14
f 14/20/10 21/19/9 22/26/16
f 12/23/13 19/22/12 20/27/17
f 10/25/15 17/24/14 18/28/18
f 16/16/7 22/26/16 29/30/19
f 20/27/17 27/36/25 28/32/21
f 19/22/12 18/177/18 25/33/22
f 16/16/7 23/31/20 24/35/24
f 22/26/16 21/19/9 28/32/21
f 20/27/17 19/22/12 26/34/23
f 17/24/14 24/35/24 25/37/22
f 28/32/21 35/42/30 36/38/26
f 26/34/23 33/44/31 34/39/27
f 24/35/24 31/45/32 32/40/28
f 29/30/19 36/38/26 30/41/29
f 27/36/25 34/39/27 35/42/30
f 26/34/23 25/33/22 32/43/28
f 23/31/20 30/41/29 31/45/32
f 35/42/30 34/39/27 41/46/33
f 32/43/28 39/54/39 40/48/35
f 31/45/32 30/41/29 37/49/36
f 35/42/30 42/47/34 43/51/38
f 33/44/31 40/48/35 41/46/33
f 32/40/28 31/45/32 38/50/37
f 36/38/26 43/51/38 37/49/36
f 52/55/7 58/66/14 51/56/15
f 57/58/18 56/67/12 49/59/13
f 48/61/8 55/72/17 54/62/9
f 53/64/16 52/55/7 45/57/3
f 58/66/14 57/58/18 50/60/11
f 56/67/12 55/72/17 48/61/8
f 54/68/9 53/64/16 46/65/6
f 52/55/7 59/82/20 65/70/24
f 64/71/22 63/79/23 56/67/12
f 55/72/17 62/75/25 61/73/21
f 60/74/19 59/82/20 52/55/7
f 58/66/14 65/70/24 64/71/22
f 56/67/12 63/79/23 62/75/25
f 61/76/21 60/74/19 53/64/16
f 72/77/32 71/83/28 64/71/22
f 70/78/31 69/84/27 62/75/25
f 68/80/30 67/85/26 60/74/19
f 66/81/29 72/77/32 65/70/24
f 71/83/28 70/78/31 63/79/23
f 69/84/27 68/88/30 61/73/21
f 67/85/26 66/81/29 59/82/20
f 71/83/28 78/94/39 77/86/35
f 76/87/33 75/95/34 68/88/30
f 67/85/26 74/91/38 73/89/36
f 79/90/37 78/94/39 71/83/28
f 77/86/35 76/87/33 69/84/27
f 68/80/30 75/92/34 74/91/38
f 73/89/36 79/90/37 72/77/32
f 88/96/40 94/107/50 87/97/41
f 93/99/42 92/108/51 85/100/43
f 84/102/45 91/113/54 90/103/46
f 89/105/48 88/96/40 81/98/2
f 94/107/50 93/99/42 86/101/44
f 92/108/51 91/113/54 84/102/45
f 90/109/46 89/105/48 82/106/49
f 88/96/40 95/123/63 101/111/52
f 100/112/53 99/120/60 92/108/51
f 91/113/54 98/116/57 97/114/55
f 96/115/56 95/123/63 88/96/40
f 94/107/50 101/111/52 100/112/53
f 92/108/51 99/120/60 98/116/57
f 97/117/55 96/115/56 89/105/48
f 108/118/58 107/124/64 100/112/53
f 106/119/59 105/125/65 98/116/57
f 104/121/61 103/126/66 96/115/56
f 102/122/62 108/118/58 101/111/52
f 107/124/64 106/119/59 99/120/60
f 105/125/65 104/129/61 97/114/55
f 103/126/66 102/122/62 95/123/63
f 107/124/64 114/135/73 113/127/67
f 112/128/68 111/136/72 104/129/61
f 103/126/66 110/132/71 109/130/69
f 115/131/70 114/135/73 107/124/64
f 113/127/67 112/128/68 105/125/65
f 104/121/61 111/133/72 110/132/71
f 109/130/69 115/131/70 108/118/58
f 123/137/49 130/148/48 124/138/40
f 121/140/45 128/149/54 129/141/46
f 119/143/44 126/178/42 127/144/51
f 117/139/2 124/138/40 125/146/50
f 122/142/47 129/141/46 130/148/48
f 120/145/43 127/144/51 128/149/54
f 118/147/41 125/146/50 126/150/42
f 124/138/40 130/148/48 137/152/56
f 128/149/54 135/158/57 136/154/55
f 127/144/51 126/178/42 133/155/53
f 124/138/40 131/153/63 132/157/52
f 130/148/48 129/141/46 136/154/55
f 128/149/54 127/144/51 134/156/60
f 125/146/50 132/157/52 133/159/53
f 136/154/55 143/164/61 144/160/66
f 134/156/60 141/166/59 142/161/65
f 132/157/52 139/167/58 140/162/64
f 137/152/56 144/160/66 138/163/62
f 135/158/57 142/161/65 143/164/61
f 134/156/60 133/155/53 140/165/64
f 131/153/63 138/163/62 139/167/58
f 143/164/61 142/161/65 149/168/68
f 140/165/64 147/176/73 148/170/67
f 139/167/58 138/163/62 145/171/69
f 143/164/61 150/169/72 151/173/71
f 141/166/59 148/170/67 149/168/68
f 140/162/64 139/167/58 146/172/70
f 144/160/66 151/173/71 145/171/69
