# Wavefront Obj file
# 
# verts: 152 uv-s: 178
mtllib No Smoking Sign.mtl

g No_Smoking_Sign
#pivot 0.000000 0.000000 0.000000

v -1.000000 0.000000 1.000000
v 1.000000 0.000000 1.000000
v -1.000000 0.000000 -1.000000
v 1.000000 0.000000 -1.000000
v -1.000000 0.040671 -1.000000
v -1.000000 0.040671 1.000000
v 1.000000 0.040671 1.000000
v 1.000000 0.040671 -1.000000
v -0.900000 0.033133 -0.874800
v -0.919702 0.033133 -0.884288
v -0.924568 0.033133 -0.905607
v -0.910934 0.033133 -0.922704
v -0.889066 0.033133 -0.922704
v -0.875432 0.033133 -0.905607
v -0.880298 0.033133 -0.884288
v -0.900000 0.046171 -0.874800
v -0.919702 0.046171 -0.884288
v -0.924568 0.046171 -0.905607
v -0.910934 0.046171 -0.922704
v -0.889066 0.046171 -0.922704
v -0.875432 0.046171 -0.905607
v -0.880298 0.046171 -0.884288
v -0.900000 0.046171 -0.865142
v -0.927253 0.046171 -0.878266
v -0.933984 0.046171 -0.907756
v -0.915124 0.046171 -0.931406
v -0.884875 0.046171 -0.931406
v -0.866016 0.046171 -0.907756
v -0.872747 0.046171 -0.878266
v -0.900000 0.053348 -0.865142
v -0.927253 0.053348 -0.878266
v -0.933984 0.053348 -0.907756
v -0.915124 0.053348 -0.931406
v -0.884875 0.053348 -0.931406
v -0.866016 0.053348 -0.907756
v -0.872747 0.053348 -0.878266
v -0.900000 0.060622 -0.875317
v -0.919297 0.060622 -0.884610
v -0.924063 0.060622 -0.905492
v -0.910709 0.060622 -0.922238
v -0.889291 0.060622 -0.922238
v -0.875936 0.060622 -0.905492
v -0.880702 0.060622 -0.884610
v -0.900000 0.066424 -0.900000
v 0.900000 0.033133 -0.874800
v 0.919702 0.033133 -0.884288
v 0.924568 0.033133 -0.905607
v 0.910934 0.033133 -0.922704
v 0.889066 0.033133 -0.922704
v 0.875432 0.033133 -0.905607
v 0.880298 0.033133 -0.884288
v 0.900000 0.046171 -0.874800
v 0.919702 0.046171 -0.884288
v 0.924568 0.046171 -0.905607
v 0.910934 0.046171 -0.922704
v 0.889066 0.046171 -0.922704
v 0.875432 0.046171 -0.905607
v 0.880298 0.046171 -0.884288
v 0.900000 0.046171 -0.865142
v 0.927253 0.046171 -0.878266
v 0.933984 0.046171 -0.907756
v 0.915124 0.046171 -0.931406
v 0.884875 0.046171 -0.931406
v 0.866016 0.046171 -0.907756
v 0.872747 0.046171 -0.878266
v 0.900000 0.053348 -0.865142
v 0.927253 0.053348 -0.878266
v 0.933984 0.053348 -0.907756
v 0.915124 0.053348 -0.931406
v 0.884875 0.053348 -0.931406
v 0.866016 0.053348 -0.907756
v 0.872747 0.053348 -0.878266
v 0.900000 0.060622 -0.875317
v 0.919297 0.060622 -0.884610
v 0.924063 0.060622 -0.905492
v 0.910709 0.060622 -0.922238
v 0.889291 0.060622 -0.922238
v 0.875936 0.060622 -0.905492
v 0.880702 0.060622 -0.884610
v 0.900000 0.066424 -0.900000
v -0.900000 0.033133 0.874800
v -0.919702 0.033133 0.884288
v -0.924568 0.033133 0.905607
v -0.910934 0.033133 0.922704
v -0.889066 0.033133 0.922704
v -0.875432 0.033133 0.905607
v -0.880298 0.033133 0.884288
v -0.900000 0.046171 0.874800
v -0.919702 0.046171 0.884288
v -0.924568 0.046171 0.905607
v -0.910934 0.046171 0.922704
v -0.889066 0.046171 0.922704
v -0.875432 0.046171 0.905607
v -0.880298 0.046171 0.884288
v -0.900000 0.046171 0.865142
v -0.927253 0.046171 0.878266
v -0.933984 0.046171 0.907756
v -0.915124 0.046171 0.931406
v -0.884875 0.046171 0.931406
v -0.866016 0.046171 0.907756
v -0.872747 0.046171 0.878266
v -0.900000 0.053348 0.865142
v -0.927253 0.053348 0.878266
v -0.933984 0.053348 0.907756
v -0.915124 0.053348 0.931406
v -0.884875 0.053348 0.931406
v -0.866016 0.053348 0.907756
v -0.872747 0.053348 0.878266
v -0.900000 0.060622 0.875317
v -0.919297 0.060622 0.884610
v -0.924063 0.060622 0.905492
v -0.910709 0.060622 0.922238
v -0.889291 0.060622 0.922238
v -0.875936 0.060622 0.905492
v -0.880702 0.060622 0.884610
v -0.900000 0.066424 0.900000
v 0.900000 0.033133 0.874800
v 0.919702 0.033133 0.884288
v 0.924568 0.033133 0.905607
v 0.910934 0.033133 0.922704
v 0.889066 0.033133 0.922704
v 0.875432 0.033133 0.905607
v 0.880298 0.033133 0.884288
v 0.900000 0.046171 0.874800
v 0.919702 0.046171 0.884288
v 0.924568 0.046171 0.905607
v 0.910934 0.046171 0.922704
v 0.889066 0.046171 0.922704
v 0.875432 0.046171 0.905607
v 0.880298 0.046171 0.884288
v 0.900000 0.046171 0.865142
v 0.927253 0.046171 0.878266
v 0.933984 0.046171 0.907756
v 0.915124 0.046171 0.931406
v 0.884875 0.046171 0.931406
v 0.866016 0.046171 0.907756
v 0.872747 0.046171 0.878266
v 0.900000 0.053348 0.865142
v 0.927253 0.053348 0.878266
v 0.933984 0.053348 0.907756
v 0.915124 0.053348 0.931406
v 0.884875 0.053348 0.931406
v 0.866016 0.053348 0.907756
v 0.872747 0.053348 0.878266
v 0.900000 0.060622 0.875317
v 0.919297 0.060622 0.884610
v 0.924063 0.060622 0.905492
v 0.910709 0.060622 0.922238
v 0.889291 0.060622 0.922238
v 0.875936 0.060622 0.905492
v 0.880702 0.060622 0.884610
v 0.900000 0.066424 0.900000
# 152 positions

vt 0.901024 0.099267
vt 0.001023 0.999267
vt 0.001023 0.099267
vt 0.994564 0.750042
vt 0.999648 0.999993
vt 0.994566 0.999993
vt 0.994563 0.250049
vt 0.999646 0.500061
vt 0.994563 0.500061
vt 0.999647 0.750042
vt 0.994563 0.000007
vt 0.999647 0.250049
vt 0.901024 0.999267
vt 0.999648 0.000007
vt 0.694860 0.084794
vt 0.725830 0.075504
vt 0.722596 0.091565
vt 0.637721 0.050231
vt 0.676622 0.055226
vt 0.666119 0.070553
vt 0.779580 0.085465
vt 0.799586 0.057829
vt 0.807561 0.074252
vt 0.750522 0.078947
vt 0.751984 0.094234
vt 0.701479 0.069500
vt 0.828320 0.040563
vt 0.837694 0.058529
vt 0.774116 0.069399
vt 0.749141 0.068712
vt 0.770940 0.062130
vt 0.727177 0.068276
vt 0.649252 0.034363
vt 0.684589 0.046259
vt 0.792797 0.048552
vt 0.706077 0.061124
vt 0.825375 0.023438
vt 0.748155 0.063117
vt 0.689306 0.040728
vt 0.708708 0.055621
vt 0.817218 0.013657
vt 0.768073 0.056612
vt 0.728047 0.062646
vt 0.654237 0.017271
vt 0.788092 0.042976
vt 0.663541 0.008861
vt 0.698363 0.032992
vt 0.779047 0.034057
vt 0.729920 0.053496
vt 0.746768 0.053503
vt 0.713792 0.047076
vt 0.795172 0.004509
vt 0.763452 0.048113
vt 0.738970 0.013352
vt 0.684747 0.004509
vt 0.522722 0.075504
vt 0.491752 0.084794
vt 0.519488 0.091565
vt 0.473514 0.055226
vt 0.434613 0.050231
vt 0.463011 0.070553
vt 0.596478 0.057829
vt 0.576472 0.085465
vt 0.604453 0.074252
vt 0.547414 0.078947
vt 0.548876 0.094234
vt 0.498371 0.069500
vt 0.625212 0.040563
vt 0.634586 0.058529
vt 0.571008 0.069399
vt 0.546033 0.068712
vt 0.524069 0.068276
vt 0.481481 0.046259
vt 0.446144 0.034363
vt 0.589689 0.048552
vt 0.502970 0.061124
vt 0.545047 0.063117
vt 0.486198 0.040728
vt 0.614110 0.013657
vt 0.622267 0.023438
vt 0.564965 0.056612
vt 0.567832 0.062130
vt 0.524939 0.062646
vt 0.451129 0.017271
vt 0.584984 0.042976
vt 0.495255 0.032992
vt 0.460433 0.008861
vt 0.575939 0.034057
vt 0.526812 0.053496
vt 0.510684 0.047076
vt 0.505600 0.055621
vt 0.543660 0.053503
vt 0.560344 0.048113
vt 0.535862 0.013352
vt 0.481639 0.004509
vt 0.592064 0.004509
vt 0.314863 0.075504
vt 0.283893 0.084794
vt 0.311629 0.091565
vt 0.265655 0.055226
vt 0.226754 0.050231
vt 0.255152 0.070553
vt 0.388619 0.057829
vt 0.368613 0.085465
vt 0.396594 0.074252
vt 0.339555 0.078947
vt 0.341017 0.094234
vt 0.290512 0.069500
vt 0.417353 0.040563
vt 0.426727 0.058529
vt 0.363149 0.069399
vt 0.338174 0.068712
vt 0.316210 0.068276
vt 0.273622 0.046259
vt 0.238285 0.034363
vt 0.381830 0.048552
vt 0.295110 0.061124
vt 0.337188 0.063117
vt 0.278339 0.040728
vt 0.406251 0.013657
vt 0.414408 0.023438
vt 0.357106 0.056612
vt 0.359973 0.062130
vt 0.317080 0.062646
vt 0.243270 0.017271
vt 0.377125 0.042976
vt 0.287396 0.032992
vt 0.252574 0.008861
vt 0.368080 0.034057
vt 0.318953 0.053496
vt 0.302825 0.047076
vt 0.297741 0.055621
vt 0.335801 0.053503
vt 0.352485 0.048113
vt 0.328003 0.013352
vt 0.273780 0.004509
vt 0.384205 0.004509
vt 0.077222 0.084794
vt 0.108191 0.075504
vt 0.104958 0.091565
vt 0.020083 0.050231
vt 0.058984 0.055226
vt 0.048481 0.070553
vt 0.161941 0.085465
vt 0.181948 0.057829
vt 0.189923 0.074252
vt 0.132884 0.078947
vt 0.134346 0.094234
vt 0.083841 0.069500
vt 0.210681 0.040563
vt 0.220056 0.058529
vt 0.156477 0.069399
vt 0.131503 0.068712
vt 0.153302 0.062130
vt 0.109539 0.068276
vt 0.031613 0.034363
vt 0.066951 0.046259
vt 0.175159 0.048552
vt 0.088439 0.061124
vt 0.207737 0.023438
vt 0.130517 0.063117
vt 0.071667 0.040728
vt 0.091070 0.055621
vt 0.199580 0.013657
vt 0.150435 0.056612
vt 0.110408 0.062646
vt 0.036599 0.017271
vt 0.170454 0.042976
vt 0.045902 0.008861
vt 0.080725 0.032992
vt 0.161408 0.034057
vt 0.112282 0.053496
vt 0.129130 0.053503
vt 0.096153 0.047076
vt 0.177534 0.004509
vt 0.145814 0.048113
vt 0.121332 0.013352
vt 0.067109 0.004509
# 178 texture coordinates

vn 0.000000 1.000000 0.000000
vn 1.000000 0.000000 0.000000
vn -1.000000 0.000000 0.000000
vn 0.000000 0.000000 -1.000000
vn 0.000000 0.000000 1.000000
vn -0.433889 0.000000 -0.900966
vn 0.318528 -0.679015 -0.661421
vn 0.433889 0.000000 -0.900966
vn -0.781830 0.000000 0.623491
vn -0.652582 -0.742936 -0.148942
vn -0.974930 0.000000 -0.222513
vn 0.781830 0.000000 0.623491
vn 0.000000 -0.594814 0.803863
vn 0.652582 -0.742936 -0.148942
vn 0.974930 0.000000 -0.222513
vn -0.318528 -0.679015 -0.661421
vn -0.437737 -0.828569 0.349084
vn 0.437737 -0.828569 0.349084
vn 0.597232 -0.798355 -0.077092
vn 0.628482 -0.594815 0.501204
vn 0.331569 -0.742151 -0.582472
vn -0.597232 -0.798355 -0.077092
vn 0.000000 -0.828568 0.559888
vn -0.331569 -0.742151 -0.582472
vn -0.628482 -0.594815 0.501204
vn 0.853143 0.435498 -0.287208
vn -0.853143 0.435498 -0.287208
vn -0.304813 0.470871 -0.827871
vn -0.660324 0.535412 0.526599
vn 0.660324 0.535412 0.526599
vn 0.304813 0.470871 -0.827871
vn 0.000000 0.379210 0.925311
vn -0.446562 0.893658 -0.044242
vn -0.000000 0.882955 0.469459
vn 0.222066 0.888258 -0.402099
vn 0.446562 0.893658 -0.044242
vn -0.222066 0.888258 -0.402099
vn -0.320672 0.912016 0.255728
vn 0.320672 0.912016 0.255728
vn 0.318528 -0.679015 0.661421
vn -0.433889 0.000000 0.900966
vn 0.433889 0.000000 0.900966
vn -0.652582 -0.742936 0.148942
vn -0.781830 0.000000 -0.623491
vn -0.974930 0.000000 0.222513
vn 0.000000 -0.594814 -0.803863
vn 0.781830 0.000000 -0.623491
vn 0.652582 -0.742936 0.148942
vn 0.974930 0.000000 0.222513
vn -0.318528 -0.679015 0.661421
vn -0.437737 -0.828569 -0.349084
vn 0.437737 -0.828569 -0.349084
vn 0.597232 -0.798355 0.077092
vn 0.331569 -0.742151 0.582472
vn -0.597232 -0.798355 0.077092
vn 0.000000 -0.828568 -0.559888
vn -0.331569 -0.742151 0.582472
vn 0.853143 0.435498 0.287208
vn -0.853143 0.435498 0.287208
vn -0.660324 0.535412 -0.526599
vn -0.628482 -0.594815 -0.501204
vn 0.660324 0.535412 -0.526599
vn 0.628482 -0.594815 -0.501204
vn 0.304813 0.470871 0.827871
vn 0.000000 0.379210 -0.925311
vn -0.446562 0.893658 0.044242
vn 0.000000 0.882955 -0.469459
vn 0.222066 0.888258 0.402099
vn -0.222066 0.888258 0.402099
vn -0.304813 0.470871 0.827871
vn 0.446562 0.893658 0.044242
vn 0.320672 0.912016 -0.255728
vn -0.320672 0.912016 -0.255728
# 73 normals

usemtl NoSmokingSignMat
f 7/1/1 5/2/1 6/3/1
f 4/4/2 7/5/2 2/6/2
f 1/7/3 5/8/3 3/9/3
f 3/9/4 8/10/4 4/4/4
f 2/11/5 6/12/5 1/7/5
f 7/1/1 8/13/1 5/2/1
f 4/4/2 8/10/2 7/5/2
f 1/7/3 6/12/3 5/8/3
f 3/9/4 5/8/4 8/10/4
f 2/11/5 7/14/5 6/12/5
f 12/15/6 20/16/7 13/17/8
f 10/18/9 18/19/10 11/20/11
f 15/21/12 16/22/13 9/23/5
f 13/17/8 21/24/14 14/25/15
f 11/20/11 19/26/16 12/15/6
f 9/23/5 17/27/17 10/28/9
f 14/25/15 22/29/18 15/21/12
f 22/29/18 28/30/19 29/31/20
f 19/26/16 27/32/21 20/16/7
f 17/33/17 25/34/22 18/19/10
f 22/29/18 23/35/23 16/22/13
f 21/24/14 27/32/21 28/30/19
f 18/19/10 26/36/24 19/26/16
f 17/27/17 23/35/23 24/37/25
f 27/32/21 35/38/26 28/30/19
f 26/36/24 32/39/27 33/40/28
f 23/35/23 31/41/29 24/37/25
f 28/30/19 36/42/30 29/31/20
f 26/36/24 34/43/31 27/32/21
f 24/44/25 32/39/27 25/34/22
f 29/31/20 30/45/32 23/35/23
f 31/46/29 39/47/33 32/39/27
f 36/42/30 37/48/34 30/45/32
f 35/38/26 41/49/35 42/50/36
f 32/39/27 40/51/37 33/40/28
f 31/41/29 37/48/34 38/52/38
f 36/42/30 42/50/36 43/53/39
f 33/40/28 41/49/35 34/43/31
f 43/53/39 42/50/36 44/54/1
f 41/49/35 40/51/37 44/54/1
f 39/47/33 38/55/38 44/54/1
f 37/48/34 43/53/39 44/54/1
f 42/50/36 41/49/35 44/54/1
f 40/51/37 39/47/33 44/54/1
f 38/52/38 37/48/34 44/54/1
f 56/56/16 48/57/8 49/58/6
f 54/59/14 46/60/12 47/61/15
f 52/62/13 51/63/9 45/64/5
f 57/65/10 49/58/6 50/66/11
f 55/67/7 47/61/15 48/57/8
f 53/68/18 45/64/5 46/69/12
f 58/70/17 50/66/11 51/63/9
f 58/70/17 64/71/22 57/65/10
f 63/72/24 55/67/7 56/56/16
f 61/73/19 53/74/18 54/59/14
f 59/75/23 58/70/17 52/62/13
f 57/65/10 63/72/24 56/56/16
f 62/76/21 54/59/14 55/67/7
f 53/68/18 59/75/23 52/62/13
f 71/77/27 63/72/24 64/71/22
f 62/76/21 68/78/26 61/73/19
f 67/79/30 59/75/23 60/80/20
f 72/81/29 64/71/22 65/82/25
f 70/83/28 62/76/21 63/72/24
f 68/78/26 60/84/20 61/73/19
f 66/85/32 65/82/25 59/75/23
f 75/86/36 67/87/30 68/78/26
f 73/88/34 72/81/29 66/85/32
f 71/77/27 77/89/37 70/83/28
f 76/90/35 68/78/26 69/91/31
f 67/79/30 73/88/34 66/85/32
f 72/81/29 78/92/33 71/77/27
f 77/89/37 69/91/31 70/83/28
f 79/93/38 80/94/1 78/92/33
f 77/89/37 80/94/1 76/90/35
f 75/86/36 80/94/1 74/95/39
f 73/88/34 80/94/1 79/93/38
f 78/92/33 80/94/1 77/89/37
f 76/90/35 80/94/1 75/86/36
f 74/96/39 80/94/1 73/88/34
f 92/97/40 84/98/41 85/99/42
f 90/100/43 82/101/44 83/102/45
f 88/103/46 87/104/47 81/105/4
f 93/106/48 85/99/42 86/107/49
f 91/108/50 83/102/45 84/98/41
f 89/109/51 81/105/4 82/110/44
f 94/111/52 86/107/49 87/104/47
f 94/111/52 100/112/53 93/106/48
f 99/113/54 91/108/50 92/97/40
f 97/114/55 89/115/51 90/100/43
f 95/116/56 94/111/52 88/103/46
f 93/106/48 99/113/54 92/97/40
f 98/117/57 90/100/43 91/108/50
f 89/109/51 95/116/56 88/103/46
f 107/118/58 99/113/54 100/112/53
f 98/117/57 104/119/59 97/114/55
f 103/120/60 95/116/56 96/121/61
f 108/122/62 100/112/53 101/123/63
f 106/124/64 98/117/57 99/113/54
f 104/119/59 96/125/61 97/114/55
f 102/126/65 101/123/63 95/116/56
f 111/127/66 103/128/60 104/119/59
f 109/129/67 108/122/62 102/126/65
f 107/118/58 113/130/68 106/124/64
f 112/131/69 104/119/59 105/132/70
f 103/120/60 109/129/67 102/126/65
f 108/122/62 114/133/71 107/118/58
f 113/130/68 105/132/70 106/124/64
f 115/134/72 116/135/1 114/133/71
f 113/130/68 116/135/1 112/131/69
f 111/127/66 116/135/1 110/136/73
f 109/129/67 116/135/1 115/134/72
f 114/133/71 116/135/1 113/130/68
f 112/131/69 116/135/1 111/127/66
f 110/137/73 116/135/1 109/129/67
f 120/138/42 128/139/50 121/140/41
f 118/141/47 126/142/48 119/143/49
f 123/144/44 124/145/46 117/146/4
f 121/140/41 129/147/43 122/148/45
f 119/143/49 127/149/40 120/138/42
f 117/146/4 125/150/52 118/151/47
f 122/148/45 130/152/51 123/144/44
f 130/152/51 136/153/55 137/154/61
f 127/149/40 135/155/57 128/139/50
f 125/156/52 133/157/53 126/142/48
f 130/152/51 131/158/56 124/145/46
f 129/147/43 135/155/57 136/153/55
f 126/142/48 134/159/54 127/149/40
f 125/150/52 131/158/56 132/160/63
f 135/155/57 143/161/59 136/153/55
f 134/159/54 140/162/58 141/163/64
f 131/158/56 139/164/62 132/160/63
f 136/153/55 144/165/60 137/154/61
f 134/159/54 142/166/70 135/155/57
f 132/167/63 140/162/58 133/157/53
f 137/154/61 138/168/65 131/158/56
f 139/169/62 147/170/71 140/162/58
f 144/165/60 145/171/67 138/168/65
f 143/161/59 149/172/69 150/173/66
f 140/162/58 148/174/68 141/163/64
f 139/164/62 145/171/67 146/175/72
f 144/165/60 150/173/66 151/176/73
f 141/163/64 149/172/69 142/166/70
f 151/176/73 150/173/66 152/177/1
f 149/172/69 148/174/68 152/177/1
f 147/170/71 146/178/72 152/177/1
f 145/171/67 151/176/73 152/177/1
f 150/173/66 149/172/69 152/177/1
f 148/174/68 147/170/71 152/177/1
f 146/175/72 145/171/67 152/177/1
f 12/15/6 19/26/16 20/16/7
f 10/18/9 17/33/17 18/19/10
f 15/21/12 22/29/18 16/22/13
f 13/17/8 20/16/7 21/24/14
f 11/20/11 18/19/10 19/26/16
f 9/23/5 16/22/13 17/27/17
f 14/25/15 21/24/14 22/29/18
f 22/29/18 21/24/14 28/30/19
f 19/26/16 26/36/24 27/32/21
f 17/33/17 24/44/25 25/34/22
f 22/29/18 29/31/20 23/35/23
f 21/24/14 20/16/7 27/32/21
f 18/19/10 25/34/22 26/36/24
f 17/27/17 16/22/13 23/35/23
f 27/32/21 34/43/31 35/38/26
f 26/36/24 25/34/22 32/39/27
f 23/35/23 30/45/32 31/41/29
f 28/30/19 35/38/26 36/42/30
f 26/36/24 33/40/28 34/43/31
f 24/44/25 31/46/29 32/39/27
f 29/31/20 36/42/30 30/45/32
f 31/46/29 38/55/38 39/47/33
f 36/42/30 43/53/39 37/48/34
f 35/38/26 34/43/31 41/49/35
f 32/39/27 39/47/33 40/51/37
f 31/41/29 30/45/32 37/48/34
f 36/42/30 35/38/26 42/50/36
f 33/40/28 40/51/37 41/49/35
f 56/56/16 55/67/7 48/57/8
f 54/59/14 53/74/18 46/60/12
f 52/62/13 58/70/17 51/63/9
f 57/65/10 56/56/16 49/58/6
f 55/67/7 54/59/14 47/61/15
f 53/68/18 52/62/13 45/64/5
f 58/70/17 57/65/10 50/66/11
f 58/70/17 65/82/25 64/71/22
f 63/72/24 62/76/21 55/67/7
f 61/73/19 60/84/20 53/74/18
f 59/75/23 65/82/25 58/70/17
f 57/65/10 64/71/22 63/72/24
f 62/76/21 61/73/19 54/59/14
f 53/68/18 60/80/20 59/75/23
f 71/77/27 70/83/28 63/72/24
f 62/76/21 69/91/31 68/78/26
f 67/79/30 66/85/32 59/75/23
f 72/81/29 71/77/27 64/71/22
f 70/83/28 69/91/31 62/76/21
f 68/78/26 67/87/30 60/84/20
f 66/85/32 72/81/29 65/82/25
f 75/86/36 74/95/39 67/87/30
f 73/88/34 79/93/38 72/81/29
f 71/77/27 78/92/33 77/89/37
f 76/90/35 75/86/36 68/78/26
f 67/79/30 74/96/39 73/88/34
f 72/81/29 79/93/38 78/92/33
f 77/89/37 76/90/35 69/91/31
f 92/97/40 91/108/50 84/98/41
f 90/100/43 89/115/51 82/101/44
f 88/103/46 94/111/52 87/104/47
f 93/106/48 92/97/40 85/99/42
f 91/108/50 90/100/43 83/102/45
f 89/109/51 88/103/46 81/105/4
f 94/111/52 93/106/48 86/107/49
f 94/111/52 101/123/63 100/112/53
f 99/113/54 98/117/57 91/108/50
f 97/114/55 96/125/61 89/115/51
f 95/116/56 101/123/63 94/111/52
f 93/106/48 100/112/53 99/113/54
f 98/117/57 97/114/55 90/100/43
f 89/109/51 96/121/61 95/116/56
f 107/118/58 106/124/64 99/113/54
f 98/117/57 105/132/70 104/119/59
f 103/120/60 102/126/65 95/116/56
f 108/122/62 107/118/58 100/112/53
f 106/124/64 105/132/70 98/117/57
f 104/119/59 103/128/60 96/125/61
f 102/126/65 108/122/62 101/123/63
f 111/127/66 110/136/73 103/128/60
f 109/129/67 115/134/72 108/122/62
f 107/118/58 114/133/71 113/130/68
f 112/131/69 111/127/66 104/119/59
f 103/120/60 110/137/73 109/129/67
f 108/122/62 115/134/72 114/133/71
f 113/130/68 112/131/69 105/132/70
f 120/138/42 127/149/40 128/139/50
f 118/141/47 125/156/52 126/142/48
f 123/144/44 130/152/51 124/145/46
f 121/140/41 128/139/50 129/147/43
f 119/143/49 126/142/48 127/149/40
f 117/146/4 124/145/46 125/150/52
f 122/148/45 129/147/43 130/152/51
f 130/152/51 129/147/43 136/153/55
f 127/149/40 134/159/54 135/155/57
f 125/156/52 132/167/63 133/157/53
f 130/152/51 137/154/61 131/158/56
f 129/147/43 128/139/50 135/155/57
f 126/142/48 133/157/53 134/159/54
f 125/150/52 124/145/46 131/158/56
f 135/155/57 142/166/70 143/161/59
f 134/159/54 133/157/53 140/162/58
f 131/158/56 138/168/65 139/164/62
f 136/153/55 143/161/59 144/165/60
f 134/159/54 141/163/64 142/166/70
f 132/167/63 139/169/62 140/162/58
f 137/154/61 144/165/60 138/168/65
f 139/169/62 146/178/72 147/170/71
f 144/165/60 151/176/73 145/171/67
f 143/161/59 142/166/70 149/172/69
f 140/162/58 147/170/71 148/174/68
f 139/164/62 138/168/65 145/171/67
f 144/165/60 143/161/59 150/173/66
f 141/163/64 148/174/68 149/172/69

# 262 faces
